<?xml version="1.0" encoding="utf-8" standalone="no"?>
<!DOCTYPE svg PUBLIC "-//W3C//DTD SVG 1.1//EN" "http://www.w3.org/Graphics/SVG/1.1/DTD/svg11.dtd">
<svg version="1.1" width="128" height="128" viewBox="0 0 28 28" overflow="visible" xmlns="http://www.w3.org/2000/svg">
  <path d="M14.89999,7.34404 L17.76218,12.03942 C18.05842,12.43035 17.874,13.19065 17.43157,13.40241 C17.04064,13.69865 16.28035,13.51423 16.06859,13.0718 L14.12429,9.882212 L12.18,13.0718 C11.96824,13.51423 11.20795,13.69865 10.81702,13.40241 C10.37459,13.19065 10.19017,12.43035 10.48641,12.03942 L13.3486,7.34404 C13.49666,7.084312 13.82546,6.899671 14.12429,6.908435 C14.42313,6.899671 14.75193,7.084312 14.89999,7.34404 z" stroke="Black" stroke-width="0" fill="#000000" fill-opacity="1" />
  <path d="M19.46649,15.10776 L22.32868,19.80314 C22.62492,20.19407 22.4405,20.95437 21.99807,21.16612 C21.60714,21.46237 20.84685,21.27795 20.63509,20.83552 L18.69079,17.64593 L16.7465,20.83552 C16.53474,21.27795 15.77445,21.46237 15.38352,21.16612 C14.94108,20.95437 14.75667,20.19407 15.05291,19.80314 L17.9151,15.10776 C18.06316,14.84803 18.39196,14.66339 18.69079,14.67215 C18.98963,14.66339 19.31843,14.84803 19.46649,15.10776 z" stroke="Black" stroke-width="0" fill="#000000" fill-opacity="1" />
  <path d="M2.768672,24.12241 L2.768672,4.136509 C2.700695,3.465981 3.460819,2.705857 4.131347,2.773835 L24.11724,2.773835 C24.78777,2.705857 25.5479,3.465981 25.47992,4.136509 L25.47992,24.12241 C25.5479,24.79293 24.78777,25.55306 24.11724,25.48508 L4.131347,25.48508 C3.460819,25.55306 2.700695,24.79293 2.768672,24.12241 z M22.14355,22.35023 C22.79943,22.37152 23.52416,21.94732 23.82675,21.36501 C24.16647,20.80355 24.15146,19.96394 23.79189,19.41498 L15.96657,6.577658 C15.61492,5.960803 14.83403,5.522279 14.12429,5.543095 C13.41455,5.522279 12.63367,5.960803 12.28202,6.577658 L4.456695,19.41498 C4.097132,19.96394 4.082123,20.80355 4.421836,21.36501 C4.724426,21.94732 5.449156,22.37152 6.105042,22.35023 z" stroke="Black" stroke-width="0" fill="#000000" fill-opacity="1" />
  <path d="M8.782103,15.10776 C8.930162,14.84803 9.258958,14.66339 9.557796,14.67215 C9.856633,14.66339 10.18543,14.84803 10.33349,15.10776 L13.19568,19.80314 C13.49192,20.19407 13.3075,20.95437 12.86507,21.16612 C12.47414,21.46237 11.71385,21.27795 11.50209,20.83552 L9.557796,17.64593 L7.6135,20.83552 C7.401744,21.27795 6.641448,21.46237 6.250517,21.16612 C5.808086,20.95437 5.623667,20.19407 5.919908,19.80314 z" stroke="Black" stroke-width="0" fill="#000000" fill-opacity="1" />
</svg>